<svg width="32" height="32" viewBox="0 0 32 32" fill="none" xmlns="http://www.w3.org/2000/svg">
<g id="Logo">
<path id="Vector" d="M16 8.65306C16 12.7107 12.7107 16 8.65309 16H1.30615V8.65306C1.30615 4.59545 4.59548 1.30612 8.65309 1.30612C12.7107 1.30612 16 4.59545 16 8.65306Z" fill="#8ADAB2"/>
<path id="Vector_2" d="M16 23.3469C16 19.2893 19.2893 16 23.3469 16H30.6939V23.3469C30.6939 27.4045 27.4045 30.6939 23.3469 30.6939C19.2893 30.6939 16 27.4045 16 23.3469Z" fill="#8ADAB2"/>
<path id="Vector_3" d="M1.30615 23.3469C1.30615 27.4045 4.59548 30.6939 8.65309 30.6939H16V23.3469C16 19.2893 12.7107 16 8.65309 16C4.59548 16 1.30615 19.2893 1.30615 23.3469Z" fill="#8ADAB2"/>
<path id="Vector_4" d="M30.6939 8.65306C30.6939 4.59545 27.4045 1.30612 23.3469 1.30612H16V8.65306C16 12.7107 19.2893 16 23.3469 16C27.4045 16 30.6939 12.7107 30.6939 8.65306Z" fill="#8ADAB2"/>
</g>
</svg>
